<svg width="783" height="532" viewBox="0 0 783 532" fill="none" xmlns="http://www.w3.org/2000/svg">
<path d="M383.303 0.132454C383.103 0.332454 365.803 0.732453 344.903 1.13245C282.503 2.13245 232.103 5.83245 191.903 12.3325C178.603 14.4325 171.103 18.1325 161.603 27.1325C145.503 42.4325 126.003 78.9324 110.903 121.732C99.1034 155.432 97.2034 160.332 95.8034 162.432C94.5034 164.532 93.6034 164.732 84.9034 164.732C73.6034 164.732 74.6034 165.932 71.4034 148.132C67.6034 126.632 65.7034 123.332 56.6034 123.532C50.3034 123.632 33.1034 126.232 21.4034 128.832C12.9034 130.732 11.5034 131.432 7.70339 135.132C2.90339 139.932 0.103391 147.932 0.00339054 156.932C-0.0966095 163.632 2.00339 167.232 7.90339 170.132C12.7034 172.532 32.5034 175.132 62.3034 177.132C74.7034 178.032 85.2034 179.132 85.7034 179.632C87.9034 181.832 75.7034 193.932 50.7034 214.532C30.6034 231.132 28.0034 234.532 26.0034 247.732C25.1034 252.932 23.9034 263.532 23.2034 271.232C21.5034 291.132 21.8034 357.332 23.7034 390.732C26.7034 441.832 27.5034 459.132 28.2034 489.732C28.9034 517.632 29.1034 520.532 30.9034 523.632C32.0034 525.532 34.2034 527.932 35.7034 529.132C38.5034 531.132 39.5034 531.232 76.3034 531.232C117.103 531.232 117.503 531.232 121.103 525.832C122.603 523.732 123.003 520.232 123.403 506.232L123.903 489.232L201.503 488.932C273.903 488.732 279.203 488.632 280.603 486.932C281.503 486.032 286.303 478.732 291.303 470.732L300.403 456.232L261.003 455.932L221.703 455.732L216.003 443.732C212.903 437.232 210.403 431.332 210.403 430.832C210.403 430.032 226.903 429.732 263.703 429.732H316.903L322.703 420.932C325.803 416.032 328.403 411.832 328.403 411.432C328.403 411.032 321.103 410.732 312.203 410.732C292.203 410.732 254.103 409.032 242.003 407.632C230.403 406.332 217.203 403.132 211.103 400.132C204.503 396.932 200.203 393.232 194.403 386.132C187.803 378.032 185.403 372.632 185.403 365.632C185.403 356.532 189.603 349.332 202.303 336.732C220.103 319.132 233.003 312.132 260.403 305.432C287.703 298.732 304.103 296.832 363.403 293.332C368.103 293.032 379.203 292.732 388.103 292.732H404.303L416.403 273.432C423.203 262.932 437.203 240.632 447.803 223.932C458.303 207.232 471.203 187.032 476.403 178.932C481.703 170.832 486.403 163.632 486.903 162.832C487.603 161.632 469.503 161.532 357.803 162.132C286.403 162.432 225.903 162.932 223.403 163.132C219.403 163.432 132.803 165.232 126.203 165.032C121.603 165.032 118.403 162.132 118.403 158.232C118.403 144.632 132.303 103.832 146.803 74.7324C160.503 47.3325 165.703 39.1325 171.503 36.1325C175.503 34.1325 187.203 32.0325 213.403 28.8325C222.803 27.6325 265.703 24.1325 282.903 23.2325C289.003 22.8325 295.003 22.3325 296.403 22.1325C297.803 21.9325 322.103 21.2325 350.603 20.5325C425.003 18.8325 483.503 20.7325 556.203 27.0325L570.503 28.3325L575.903 19.8325C578.903 15.1325 581.203 11.2325 581.103 11.0325C580.803 10.8325 554.203 7.83245 533.903 5.73245C516.303 3.93245 496.603 2.73245 466.903 1.73245C433.703 0.632454 383.803 -0.367546 383.303 0.132454ZM103.403 244.732C129.403 247.932 155.703 255.532 176.903 265.732C191.403 272.732 219.003 291.532 217.303 293.232C216.103 294.432 191.903 303.832 186.303 305.232C178.103 307.332 174.103 307.132 150.803 303.232C124.603 298.732 115.903 298.632 107.203 302.332C97.5034 306.432 94.3034 306.432 81.8034 302.232C64.6034 296.532 60.1034 293.132 55.3034 282.132C53.4034 278.032 53.0034 274.832 52.6034 262.032C52.3034 253.732 52.4034 246.132 52.7034 245.332C53.3034 243.932 56.2034 243.732 74.1034 243.732C85.6034 243.732 98.8034 244.232 103.403 244.732ZM63.4034 380.232C70.3034 381.532 85.4034 384.332 96.9034 386.232C126.903 391.432 127.203 391.432 135.003 393.132C149.603 396.232 160.703 401.832 167.503 409.432C176.003 418.832 187.403 439.032 187.403 444.532C187.403 448.232 186.003 449.332 180.403 450.232C174.203 451.132 84.7034 442.932 76.4034 440.732C71.2034 439.332 63.8034 433.732 59.4034 427.832C53.1034 419.532 49.4034 407.632 47.4034 389.332C46.2034 378.532 46.4034 376.732 49.1034 377.332C50.1034 377.532 56.5034 378.832 63.4034 380.232Z" fill="white"/>
<path d="M606.103 16.4324C604.803 18.5324 601.003 24.5324 597.703 29.7324C584.203 51.1324 578.403 60.6324 578.403 61.2324C578.403 61.6324 612.703 61.8324 654.703 61.6324L730.903 61.2324L731.203 97.5324L731.403 133.932L735.203 133.332C745.003 131.832 756.103 130.832 768.203 130.132L781.403 129.532V92.8324C781.403 52.8324 780.903 48.1324 775.603 38.3324C772.603 32.7324 761.903 21.5324 757.203 19.1324C755.603 18.3324 750.903 16.5324 746.803 15.1324L739.303 12.7324H673.903H608.403L606.103 16.4324Z" fill="white"/>
<path d="M771.903 151.432C732.303 154.532 715.603 157.532 684.903 166.932C647.303 178.332 602.903 202.232 568.803 229.432C556.303 239.532 527.003 268.232 516.703 280.732C464.103 344.432 433.303 427.632 429.703 515.432L429.103 531.732H457.203H485.403V520.332C485.403 490.132 493.303 446.832 504.403 415.632C513.803 389.432 524.803 367.632 540.703 343.732C552.503 326.132 564.903 311.332 581.503 295.232C593.303 283.832 614.403 265.732 615.903 265.732C616.203 265.732 618.803 263.932 621.703 261.832C628.603 256.632 648.303 244.832 659.203 239.332C693.003 222.332 730.103 211.932 765.703 209.532L782.403 208.332V179.532V150.732L779.203 150.932C777.403 151.032 774.103 151.232 771.903 151.432Z" fill="white"/>
<path d="M760.903 270.232C704.403 278.532 657.703 302.732 616.703 344.832C582.003 380.532 556.803 432.232 548.503 484.732C546.703 496.132 544.403 520.432 544.403 528.432V531.732H572.303H600.103L600.703 517.932C603.503 453.532 636.603 393.432 688.903 357.632C705.803 346.132 730.003 335.432 750.303 330.632C757.303 328.932 777.003 325.832 781.203 325.732C782.103 325.732 782.403 319.332 782.403 297.232V268.732L776.203 268.832C772.703 268.932 765.903 269.532 760.903 270.232Z" fill="white"/>
<path d="M382.203 307.832C378.403 308.232 372.503 309.532 368.903 310.732C361.403 313.232 361.403 314.132 368.403 319.732L372.403 322.932L376.603 319.332C378.903 317.332 381.303 315.732 381.903 315.732C382.603 315.732 383.803 317.332 384.503 319.232L385.903 322.732L390.303 315.732C392.603 311.832 394.403 308.432 394.303 308.332C393.103 307.332 388.003 307.132 382.203 307.832Z" fill="white"/>
<path d="M768.403 388.232C758.703 390.632 756.003 391.432 748.703 394.032C732.003 400.132 718.303 408.932 703.503 423.232C688.003 438.232 676.803 455.432 669.103 475.932C664.103 489.232 659.403 513.732 659.403 526.932V531.732H686.803H714.103L714.803 522.732C716.503 500.732 724.503 482.932 739.803 466.932C750.803 455.432 763.103 448.132 777.203 444.632L782.403 443.332V415.032V386.732L778.203 386.832C775.803 386.932 771.403 387.532 768.403 388.232Z" fill="white"/>
<path d="M350.003 429.932C344.103 439.832 322.803 474.232 302.303 506.932C294.103 519.932 287.403 530.832 287.403 531.132C287.403 531.432 315.103 531.732 348.903 531.732H410.403V520.932C410.503 510.932 411.503 494.532 413.003 479.732L413.603 473.232L385.603 473.332C370.103 473.332 357.003 473.132 356.403 472.732C355.603 472.232 355.203 464.532 355.303 446.832C355.303 433.032 355.203 421.732 355.103 421.732C355.003 421.732 352.703 425.432 350.003 429.932Z" fill="white"/>
</svg>
